<?xml version="1.0" encoding="utf-8"?>
<!-- Generator: Adobe Illustrator 27.2.0, SVG Export Plug-In . SVG Version: 6.00 Build 0)  -->
<svg version="1.1" id="Capa_1" xmlns:serif="http://www.serif.com/"
	 xmlns="http://www.w3.org/2000/svg" xmlns:xlink="http://www.w3.org/1999/xlink" x="0px" y="0px" viewBox="0 0 456 456"
	 style="enable-background:new 0 0 456 456;" xml:space="preserve">
<style type="text/css">
	.st0{fill:#07709A;}
	.st1{fill:#47B067;}
</style>
<g>
	<path class="st0" d="M93.4,165.3l1.9,2.3c1.1,1.4,3.3,1.4,4.4,0c4.7-6.1,4.2-6.6,7.8-9.8c6.6-5.7,16.4-6.2,26.1-6.2
		c11.7,0,22.4,3,32.2,9c9.8,6,17.6,14.8,23.3,26.4c5.7,11.6,8.5,25.3,8.5,41.1c0,11.7-1.6,22.4-4.9,32.1c-3.3,9.8-7.8,18-13.5,24.6
		c-5.7,6.6-12.5,11.7-20.4,15.3c-7.8,3.6-16.2,5.3-25.2,5.3c-10.8,0-19.9-2.2-27.3-6.5c-2.9-1.7-4-2.6-4.6-3.6
		c-1.5-2.3-5.1-1.2-5.1,1.5v45.2c0,16.7-12.8,23.2-24.9,23.2c-7.1,0-16.4-5.7-18.7-10c-2.3-4.3-3.5-10.6-3.5-18.8V172.8
		c0-7.2,1.6-12.6,4.7-16.2c3.1-3.6,7.5-5.3,12.9-5.3c5.4,0,11.4-0.3,15.5,2.6c5,3.4,6.1,5,10.3,10.1
		C93.1,164.3,93.1,164.9,93.4,165.3z M146.8,228.1c0-7.7-1.1-14.3-3.2-19.8s-5.1-9.7-8.8-12.7c-3.8-2.9-7.9-4.4-12.5-4.4
		c-7.2,0-13.4,3.2-18.3,9.5c-5,6.3-7.5,15.6-7.5,27.9c0,11.6,2.5,20.6,7.4,27c4.9,6.4,11.1,9.6,18.4,9.6c4.4,0,8.4-1.4,12.1-4.2
		c3.7-2.8,6.7-7,8.9-12.6C145.6,242.8,146.8,236,146.8,228.1z"/>
	<path class="st0" d="M273.6,236.7l-21-42.2l-3.1,87.2c0.4,16.6-10.6,23.7-20.3,23.7c-17.7,0-22.3-15.8-22.3-23.7l0-168.6
		c0-8.9,2.3-15,7-18.1c4.7-3.1,7.6-4.1,15.7-4.2c6.8-0.1,11.8,2.9,11.8,2.9c7.8,4.6,9.4,8.2,11.2,11.5
		c1.9,3.7,53.2,102.5,53.2,102.5c0.4,1.1,2,1.1,2.4,0l42.5-82.2c5.2-10.9,9.7-22.8,16.2-28.1c0,0,4.8-5,11.9-5.7
		c8.3-0.8,14.1-0.3,18.8,2.9c4.7,3.1,9.4,9.5,9.4,18.5l-0.1,163.3c0.7,8.9-1.7,17.4-5.2,21.3c-3.5,3.9-9,7.8-15.8,7.8
		c-8.9,0-14.2-4.6-17.7-8.5c-3.5-3.9-4.3-13.3-4.3-21.1l-1.2-77.8c-0.1-1.8-2.5-2.4-3.4-0.8c-8.8,15.6-33.4,59.3-34.5,62.6
		c-1.4,4-4.7,13.8-18.2,13.8c-12.5,0-15.5-5.8-17.4-9C287.2,261.3,274.7,240.9,273.6,236.7z"/>
	<path class="st1" d="M170.1,139H73.2c-13.3,0-24.1-10.8-24.1-24.1v0c0-13.3,10.8-24.1,24.1-24.1h96.9c13.3,0,24.1,10.8,24.1,24.1v0
		C194.2,128.2,183.4,139,170.1,139z"/>
	<circle class="st1" cx="117.8" cy="334.7" r="10.2"/>
	<circle class="st1" cx="152.5" cy="334.7" r="10.2"/>
	<circle class="st1" cx="186.5" cy="334.7" r="10.2"/>
</g>
</svg>
